<svg width="144" height="144" viewBox="0 0 144 144" fill="none" xmlns="http://www.w3.org/2000/svg">
<g clip-path="url(#clip0_660_3725)">
<path d="M142.58 0.830933H1.42023V141.99H142.58V0.830933Z" fill="#FFFDEA"/>
<path d="M51.8977 77.5854C52.1985 77.5854 52.5053 77.5109 52.7863 77.353C54.559 76.3611 56.2603 75.199 57.8446 73.9003C61.4506 70.9444 64.3701 67.3687 66.5225 63.2735C66.9904 62.3818 66.6486 61.2806 65.757 60.8112C64.8653 60.3433 63.7641 60.6851 63.2947 61.5768C61.3701 65.2375 58.759 68.435 55.5327 71.0796C54.1139 72.2431 52.5919 73.2821 51.0046 74.1692C50.1266 74.6613 49.8122 75.7717 50.3043 76.6497C50.6385 77.2466 51.2582 77.5823 51.8962 77.5823L51.8977 77.5854Z" fill="#1E1F23"/>
<path d="M82.1544 66.8384C84.0562 67.5964 86.0294 68.1888 88.0192 68.5989C88.1438 68.6248 88.2668 68.6369 88.3883 68.6369C89.2359 68.6369 89.9939 68.043 90.1716 67.1817C90.3752 66.1959 89.7402 65.2313 88.7544 65.0293C86.9742 64.6632 85.2076 64.1331 83.5048 63.4541C79.6283 61.9093 76.1726 59.6506 73.2304 56.7448C72.5149 56.0369 71.3605 56.043 70.6526 56.7599C69.9448 57.4754 69.9524 58.6298 70.6678 59.3377C73.958 62.5898 77.8223 65.1144 82.1544 66.8415V66.8384Z" fill="#1E1F23"/>
<path d="M41.2405 85.0982C40.639 84.2916 39.4967 84.1246 38.6901 84.7261C35.3757 87.199 31.639 88.9565 27.5863 89.9499C23.7995 90.8795 19.9367 91.0891 16.1073 90.5742C15.1109 90.439 14.1919 91.1392 14.0582 92.1372C13.9246 93.1352 14.6248 94.0527 15.6213 94.1863C17.1463 94.3914 18.6744 94.4932 20.201 94.4932C22.9656 94.4932 25.7286 94.1575 28.4537 93.4891C32.9833 92.3772 37.159 90.4116 40.8668 87.6471C41.6734 87.0456 41.8405 85.9033 41.239 85.0967L41.2405 85.0982Z" fill="#1E1F23"/>
<path d="M127.2 69.3342C123.605 70.7469 119.804 71.4639 115.903 71.4639C111.731 71.4639 107.684 70.6466 103.874 69.0365C102.948 68.6446 101.877 69.0775 101.485 70.0056C101.093 70.9322 101.526 72.0031 102.454 72.395C106.715 74.1965 111.24 75.1109 115.902 75.1109C120.26 75.1109 124.51 74.3089 128.532 72.7292C129.469 72.3616 129.93 71.3028 129.562 70.3656C129.194 69.4284 128.136 68.9682 127.198 69.3358L127.2 69.3342Z" fill="#1E1F23"/>
<path d="M102.489 102.091C101.058 102.933 98.1661 104.312 94.8729 104.092C93.2233 103.981 91.8577 103.502 91.5995 103.408C90.518 103.01 89.5002 102.447 88.5752 101.737C83.9559 98.1904 82.7195 91.7666 85.6861 86.7752L87.0486 84.7838L88.4202 82.6922L90.3311 79.8987L90.3554 79.8638C95.3468 72.1914 97.9853 63.2765 97.9853 54.0835C97.9853 44.2359 94.9899 34.7954 89.324 26.7813C88.7423 25.9595 87.6045 25.7635 86.7828 26.3453C85.961 26.9271 85.765 28.0648 86.3468 28.8866C91.5752 36.281 94.3397 44.9939 94.3397 54.0835C94.3397 62.561 91.9093 70.7818 87.3114 77.8587L85.402 80.6491L84.0288 82.7423L82.6466 84.7641L82.5888 84.8552C78.6334 91.443 80.2542 99.9448 86.3574 104.631C87.5742 105.565 88.9154 106.305 90.3402 106.83C90.8172 107.007 92.5352 107.591 94.6314 107.731C94.9504 107.752 95.2648 107.763 95.5777 107.763C99.4359 107.763 102.68 106.212 104.339 105.235C105.207 104.725 105.497 103.609 104.986 102.74C104.476 101.872 103.358 101.582 102.491 102.093L102.489 102.091Z" fill="#1E1F23"/>
<path d="M64.9033 93.0654L61.0679 90.4466L60.4709 90.0441C48.6547 81.8719 41.6005 68.4289 41.6005 54.0821C41.6005 44.9925 44.3636 36.2795 49.5934 28.8851C50.1752 28.0633 49.9793 26.9256 49.1575 26.3438C48.3357 25.7621 47.198 25.958 46.6162 26.7798C40.9504 34.7925 37.955 44.2345 37.955 54.0821C37.955 69.6289 45.6 84.196 58.4051 93.0487L62.1722 95.6188L62.7555 96.0122C68.4608 100.299 69.8582 108.322 65.9347 114.298C65.1798 115.449 64.2623 116.471 63.2112 117.336C62.599 117.839 59.315 120.354 54.755 120.419C54.6942 120.419 54.6334 120.419 54.5727 120.419C47.8755 120.419 43.6648 115.019 43.2031 114.398C42.6015 113.59 41.4608 113.423 40.6527 114.023C39.8446 114.624 39.6775 115.765 40.2775 116.573C41.2147 117.834 46.2729 124.065 54.5651 124.065C54.6456 124.065 54.7261 124.065 54.8081 124.063C60.4375 123.981 64.4355 121.047 65.5261 120.149C66.8613 119.051 68.0248 117.753 68.9818 116.295C73.9686 108.699 72.1762 98.4942 64.9018 93.0623L64.9033 93.0654Z" fill="#1E1F23"/>
<path d="M142.177 144H1.82278C0.815696 144 0 143.184 0 142.177V1.82278C0 0.815696 0.815696 0 1.82278 0H142.177C143.184 0 144 0.815696 144 1.82278V142.177C144 143.184 143.184 144 142.177 144ZM3.64557 140.354H140.354V3.64557H3.64557V140.354Z" fill="#1E1F23"/>
</g>
<defs>
<clipPath id="clip0_660_3725">
<rect width="144" height="144" fill="white"/>
</clipPath>
</defs>
</svg>
