<svg width="32" height="27" viewBox="0 0 32 27" fill="none" xmlns="http://www.w3.org/2000/svg">
<path d="M31.35 9.24985C31.27 9.10985 31.17 8.96985 31.04 8.86985L20.54 0.329848C20 -0.110152 19.22 -0.0201521 18.78 0.509848C18.59 0.739848 18.5 1.01985 18.5 1.29985C18.5 1.65985 18.66 2.01985 18.96 2.26985L26.73 8.58985H5.76002L13.53 2.26985C14.07 1.82985 14.15 1.04985 13.71 0.509848C13.27 -0.0301521 12.49 -0.110152 11.95 0.329848L1.45002 8.86985C1.31002 8.97985 1.21002 9.11985 1.13002 9.26985C0.830017 9.65985 0.70002 10.1498 0.79002 10.6398L3.34002 25.0198C3.49002 25.8598 4.21002 26.4598 5.06002 26.4598H27.42C28.27 26.4598 29 25.8498 29.14 25.0198L31.69 10.6398C31.78 10.1398 31.65 9.63985 31.33 9.24985H31.35ZM26.8 23.9598H5.70002L3.41002 11.0798H29.08L26.79 23.9598H26.8Z" fill="#1E1F23"/>
</svg>
