<svg width="31" height="31" viewBox="0 0 31 31" fill="none" xmlns="http://www.w3.org/2000/svg">
<path d="M30.13 28.37L20.88 19.12C22.51 17.1 23.49 14.54 23.49 11.75C23.5 5.27 18.23 0 11.75 0C5.27 0 0 5.27 0 11.75C0 18.23 5.27 23.5 11.75 23.5C14.54 23.5 17.1 22.52 19.12 20.89L28.37 30.14C28.61 30.38 28.93 30.51 29.25 30.51C29.57 30.51 29.89 30.39 30.13 30.14C30.62 29.65 30.62 28.86 30.13 28.37ZM2.5 11.75C2.5 6.65 6.65 2.5 11.75 2.5C16.85 2.5 21 6.65 21 11.75C21 16.85 16.85 21 11.75 21C6.65 21 2.5 16.85 2.5 11.75Z" fill="#1E1F23"/>
</svg>
